<mxfile host="Electron" modified="2023-09-20T05:17:31.853Z" agent="Mozilla/5.0 (Windows NT 10.0; Win64; x64) AppleWebKit/537.36 (KHTML, like Gecko) draw.io/21.6.8 Chrome/114.0.5735.289 Electron/25.5.0 Safari/537.36" etag="DBnFZI5naxxi5OllNWf1" version="21.6.8" type="device">
  <diagram name="Страница — 1" id="_xquojCbfp1WQvb0xA65">
    <mxGraphModel dx="1091" dy="638" grid="1" gridSize="10" guides="1" tooltips="1" connect="1" arrows="1" fold="1" page="1" pageScale="1" pageWidth="827" pageHeight="1169" math="0" shadow="0">
      <root>
        <mxCell id="0" />
        <mxCell id="1" parent="0" />
        <mxCell id="YkI9wFQXWLJBNFwZknxd-18" value="" style="rounded=0;whiteSpace=wrap;html=1;" vertex="1" parent="1">
          <mxGeometry x="179" y="202.5" width="530" height="367.5" as="geometry" />
        </mxCell>
        <mxCell id="adwFdZlHH-X9pD3AE2Ko-1" value="Користувач" style="shape=umlActor;verticalLabelPosition=bottom;verticalAlign=top;html=1;outlineConnect=0;" parent="1" vertex="1">
          <mxGeometry x="70" y="270" width="30" height="60" as="geometry" />
        </mxCell>
        <mxCell id="YkI9wFQXWLJBNFwZknxd-29" style="edgeStyle=orthogonalEdgeStyle;rounded=0;orthogonalLoop=1;jettySize=auto;html=1;" edge="1" parent="1" source="adwFdZlHH-X9pD3AE2Ko-4" target="adwFdZlHH-X9pD3AE2Ko-1">
          <mxGeometry relative="1" as="geometry">
            <mxPoint x="30" y="300" as="targetPoint" />
            <Array as="points">
              <mxPoint x="745" y="680" />
              <mxPoint x="30" y="680" />
              <mxPoint x="30" y="300" />
            </Array>
          </mxGeometry>
        </mxCell>
        <mxCell id="adwFdZlHH-X9pD3AE2Ko-4" value="Тренер" style="shape=umlActor;verticalLabelPosition=bottom;verticalAlign=top;html=1;outlineConnect=0;" parent="1" vertex="1">
          <mxGeometry x="730" y="270" width="30" height="60" as="geometry" />
        </mxCell>
        <mxCell id="adwFdZlHH-X9pD3AE2Ko-5" value="&lt;font style=&quot;font-size: 7px;&quot;&gt;&amp;nbsp;обирає тип тренування&lt;/font&gt;" style="ellipse;whiteSpace=wrap;html=1;" parent="1" vertex="1">
          <mxGeometry x="190" y="260" width="130" height="30" as="geometry" />
        </mxCell>
        <mxCell id="adwFdZlHH-X9pD3AE2Ko-6" value="&lt;font style=&quot;font-size: 8px;&quot;&gt;слідкує за своїм прогресом&lt;/font&gt;" style="ellipse;whiteSpace=wrap;html=1;" parent="1" vertex="1">
          <mxGeometry x="190" y="300" width="130" height="30" as="geometry" />
        </mxCell>
        <mxCell id="adwFdZlHH-X9pD3AE2Ko-7" value="&lt;font style=&quot;font-size: 7px;&quot;&gt;надає поради щодо тренувань та харчування.&lt;/font&gt;" style="ellipse;whiteSpace=wrap;html=1;" parent="1" vertex="1">
          <mxGeometry x="530" y="216.25" width="140" height="33.75" as="geometry" />
        </mxCell>
        <mxCell id="adwFdZlHH-X9pD3AE2Ko-9" value="&lt;font style=&quot;font-size: 7px;&quot;&gt;відслідковує прогрес та надає індивідуальну підтримку.&lt;/font&gt;" style="ellipse;whiteSpace=wrap;html=1;" parent="1" vertex="1">
          <mxGeometry x="535" y="265" width="130" height="40" as="geometry" />
        </mxCell>
        <mxCell id="YkI9wFQXWLJBNFwZknxd-27" style="edgeStyle=orthogonalEdgeStyle;rounded=0;orthogonalLoop=1;jettySize=auto;html=1;" edge="1" parent="1" source="adwFdZlHH-X9pD3AE2Ko-14" target="adwFdZlHH-X9pD3AE2Ko-1">
          <mxGeometry relative="1" as="geometry" />
        </mxCell>
        <mxCell id="adwFdZlHH-X9pD3AE2Ko-14" value="Фізіотерапевт" style="shape=umlActor;verticalLabelPosition=bottom;verticalAlign=top;html=1;" parent="1" vertex="1">
          <mxGeometry x="460" y="555" width="30" height="60" as="geometry" />
        </mxCell>
        <mxCell id="adwFdZlHH-X9pD3AE2Ko-16" value="&lt;font style=&quot;font-size: 6px;&quot;&gt;вивчає медичну історію користувача&lt;/font&gt;" style="strokeWidth=1;html=1;shape=mxgraph.flowchart.terminator;whiteSpace=wrap;" parent="1" vertex="1">
          <mxGeometry x="530" y="435" width="130" height="30" as="geometry" />
        </mxCell>
        <mxCell id="adwFdZlHH-X9pD3AE2Ko-17" value="&lt;font style=&quot;font-size: 8px;&quot;&gt;визначає потреби та обмеження.&lt;/font&gt;" style="strokeWidth=1;html=1;shape=mxgraph.flowchart.terminator;whiteSpace=wrap;" parent="1" vertex="1">
          <mxGeometry x="530" y="510" width="130" height="35" as="geometry" />
        </mxCell>
        <mxCell id="adwFdZlHH-X9pD3AE2Ko-18" value="&lt;font style=&quot;font-size: 8px;&quot;&gt;створює персоналізовану програму лікування &lt;/font&gt;" style="strokeWidth=1;html=1;shape=mxgraph.flowchart.terminator;whiteSpace=wrap;" parent="1" vertex="1">
          <mxGeometry x="280" y="435" width="120" height="35" as="geometry" />
        </mxCell>
        <mxCell id="adwFdZlHH-X9pD3AE2Ko-19" value="&lt;font style=&quot;font-size: 9px;&quot;&gt;відстежує прогрес користувача&lt;/font&gt;" style="strokeWidth=1;html=1;shape=mxgraph.flowchart.terminator;whiteSpace=wrap;" parent="1" vertex="1">
          <mxGeometry x="280" y="490" width="120" height="30" as="geometry" />
        </mxCell>
        <mxCell id="adwFdZlHH-X9pD3AE2Ko-28" value="" style="endArrow=block;dashed=1;endFill=0;endSize=12;html=1;rounded=0;exitX=0;exitY=0.5;exitDx=0;exitDy=0;" parent="1" source="adwFdZlHH-X9pD3AE2Ko-9" target="adwFdZlHH-X9pD3AE2Ko-6" edge="1">
          <mxGeometry width="160" relative="1" as="geometry">
            <mxPoint x="340" y="340" as="sourcePoint" />
            <mxPoint x="500" y="340" as="targetPoint" />
          </mxGeometry>
        </mxCell>
        <mxCell id="adwFdZlHH-X9pD3AE2Ko-29" value="&lt;font style=&quot;font-size: 7px;&quot;&gt; виконує вправи та процедури відповідно до рекомендацій &lt;/font&gt;" style="strokeWidth=1;html=1;shape=mxgraph.flowchart.terminator;whiteSpace=wrap;strokeColor=default;" parent="1" vertex="1">
          <mxGeometry x="230" y="214.38" width="130" height="37.5" as="geometry" />
        </mxCell>
        <mxCell id="adwFdZlHH-X9pD3AE2Ko-31" value="" style="endArrow=block;dashed=1;endFill=0;endSize=12;html=1;rounded=0;exitX=0.051;exitY=0.31;exitDx=0;exitDy=0;exitPerimeter=0;" parent="1" source="adwFdZlHH-X9pD3AE2Ko-7" target="adwFdZlHH-X9pD3AE2Ko-29" edge="1">
          <mxGeometry width="160" relative="1" as="geometry">
            <mxPoint x="340" y="360" as="sourcePoint" />
            <mxPoint x="500" y="360" as="targetPoint" />
          </mxGeometry>
        </mxCell>
        <mxCell id="adwFdZlHH-X9pD3AE2Ko-32" value="" style="endArrow=block;dashed=1;endFill=0;endSize=12;html=1;rounded=0;entryX=0.89;entryY=0.89;entryDx=0;entryDy=0;entryPerimeter=0;" parent="1" source="adwFdZlHH-X9pD3AE2Ko-18" target="adwFdZlHH-X9pD3AE2Ko-29" edge="1">
          <mxGeometry width="160" relative="1" as="geometry">
            <mxPoint x="340" y="360" as="sourcePoint" />
            <mxPoint x="360" y="410" as="targetPoint" />
            <Array as="points" />
          </mxGeometry>
        </mxCell>
        <mxCell id="adwFdZlHH-X9pD3AE2Ko-33" value="" style="endArrow=block;dashed=1;endFill=0;endSize=12;html=1;rounded=0;exitX=0.11;exitY=0.11;exitDx=0;exitDy=0;exitPerimeter=0;entryX=0;entryY=1;entryDx=0;entryDy=0;" parent="1" source="adwFdZlHH-X9pD3AE2Ko-16" target="adwFdZlHH-X9pD3AE2Ko-7" edge="1">
          <mxGeometry width="160" relative="1" as="geometry">
            <mxPoint x="340" y="360" as="sourcePoint" />
            <mxPoint x="500" y="360" as="targetPoint" />
          </mxGeometry>
        </mxCell>
        <mxCell id="adwFdZlHH-X9pD3AE2Ko-35" value="" style="endArrow=block;dashed=1;endFill=0;endSize=12;html=1;rounded=0;exitX=0.5;exitY=1;exitDx=0;exitDy=0;exitPerimeter=0;" parent="1" source="adwFdZlHH-X9pD3AE2Ko-16" edge="1">
          <mxGeometry width="160" relative="1" as="geometry">
            <mxPoint x="340" y="360" as="sourcePoint" />
            <mxPoint x="580" y="520" as="targetPoint" />
          </mxGeometry>
        </mxCell>
        <mxCell id="adwFdZlHH-X9pD3AE2Ko-36" value="extend" style="text;html=1;align=center;verticalAlign=middle;resizable=0;points=[];autosize=1;strokeColor=none;fillColor=none;rotation=90;" parent="1" vertex="1">
          <mxGeometry x="530" y="350" width="60" height="30" as="geometry" />
        </mxCell>
        <mxCell id="adwFdZlHH-X9pD3AE2Ko-38" value="include" style="text;html=1;align=center;verticalAlign=middle;resizable=0;points=[];autosize=1;strokeColor=none;fillColor=none;rotation=-5;" parent="1" vertex="1">
          <mxGeometry x="400" y="270" width="60" height="30" as="geometry" />
        </mxCell>
        <mxCell id="adwFdZlHH-X9pD3AE2Ko-39" value="extend" style="text;html=1;align=center;verticalAlign=middle;resizable=0;points=[];autosize=1;strokeColor=none;fillColor=none;rotation=-5;" parent="1" vertex="1">
          <mxGeometry x="414" y="202.5" width="60" height="30" as="geometry" />
        </mxCell>
        <mxCell id="adwFdZlHH-X9pD3AE2Ko-40" value="include" style="text;html=1;align=center;verticalAlign=middle;resizable=0;points=[];autosize=1;strokeColor=none;fillColor=none;rotation=105;" parent="1" vertex="1">
          <mxGeometry x="570" y="475" width="60" height="30" as="geometry" />
        </mxCell>
        <mxCell id="adwFdZlHH-X9pD3AE2Ko-41" value="extend" style="text;html=1;align=center;verticalAlign=middle;resizable=0;points=[];autosize=1;strokeColor=none;fillColor=none;rotation=90;" parent="1" vertex="1">
          <mxGeometry x="320" y="340" width="60" height="30" as="geometry" />
        </mxCell>
        <mxCell id="adwFdZlHH-X9pD3AE2Ko-42" value="&lt;font style=&quot;font-size: 8px;&quot;&gt;надіслати запит на консультацію&lt;/font&gt;" style="strokeWidth=1;html=1;shape=mxgraph.flowchart.terminator;whiteSpace=wrap;" parent="1" vertex="1">
          <mxGeometry x="190" y="340" width="130" height="30" as="geometry" />
        </mxCell>
        <mxCell id="YkI9wFQXWLJBNFwZknxd-4" value="" style="endArrow=classic;html=1;rounded=0;exitX=1;exitY=0.3333333333333333;exitDx=0;exitDy=0;exitPerimeter=0;entryX=0;entryY=0.5;entryDx=0;entryDy=0;entryPerimeter=0;" edge="1" parent="1" source="adwFdZlHH-X9pD3AE2Ko-1" target="adwFdZlHH-X9pD3AE2Ko-29">
          <mxGeometry width="50" height="50" relative="1" as="geometry">
            <mxPoint x="360" y="330" as="sourcePoint" />
            <mxPoint x="410" y="280" as="targetPoint" />
          </mxGeometry>
        </mxCell>
        <mxCell id="YkI9wFQXWLJBNFwZknxd-5" value="" style="endArrow=classic;html=1;rounded=0;entryX=0.031;entryY=0.73;entryDx=0;entryDy=0;entryPerimeter=0;" edge="1" parent="1" source="adwFdZlHH-X9pD3AE2Ko-1" target="adwFdZlHH-X9pD3AE2Ko-5">
          <mxGeometry width="50" height="50" relative="1" as="geometry">
            <mxPoint x="360" y="330" as="sourcePoint" />
            <mxPoint x="410" y="280" as="targetPoint" />
          </mxGeometry>
        </mxCell>
        <mxCell id="YkI9wFQXWLJBNFwZknxd-6" value="" style="endArrow=classic;html=1;rounded=0;entryX=0;entryY=0.5;entryDx=0;entryDy=0;" edge="1" parent="1" source="adwFdZlHH-X9pD3AE2Ko-1" target="adwFdZlHH-X9pD3AE2Ko-6">
          <mxGeometry width="50" height="50" relative="1" as="geometry">
            <mxPoint x="360" y="330" as="sourcePoint" />
            <mxPoint x="410" y="280" as="targetPoint" />
          </mxGeometry>
        </mxCell>
        <mxCell id="YkI9wFQXWLJBNFwZknxd-7" value="" style="endArrow=classic;html=1;rounded=0;entryX=0;entryY=0.5;entryDx=0;entryDy=0;entryPerimeter=0;" edge="1" parent="1" source="adwFdZlHH-X9pD3AE2Ko-1" target="adwFdZlHH-X9pD3AE2Ko-42">
          <mxGeometry width="50" height="50" relative="1" as="geometry">
            <mxPoint x="360" y="330" as="sourcePoint" />
            <mxPoint x="410" y="280" as="targetPoint" />
          </mxGeometry>
        </mxCell>
        <mxCell id="YkI9wFQXWLJBNFwZknxd-10" value="" style="endArrow=classic;html=1;rounded=0;entryX=1;entryY=0.5;entryDx=0;entryDy=0;" edge="1" parent="1" source="adwFdZlHH-X9pD3AE2Ko-4" target="adwFdZlHH-X9pD3AE2Ko-7">
          <mxGeometry width="50" height="50" relative="1" as="geometry">
            <mxPoint x="360" y="330" as="sourcePoint" />
            <mxPoint x="410" y="280" as="targetPoint" />
          </mxGeometry>
        </mxCell>
        <mxCell id="YkI9wFQXWLJBNFwZknxd-11" value="" style="endArrow=classic;html=1;rounded=0;exitX=0.5;exitY=0.5;exitDx=0;exitDy=0;exitPerimeter=0;entryX=1;entryY=0.5;entryDx=0;entryDy=0;" edge="1" parent="1" source="adwFdZlHH-X9pD3AE2Ko-4" target="adwFdZlHH-X9pD3AE2Ko-9">
          <mxGeometry width="50" height="50" relative="1" as="geometry">
            <mxPoint x="360" y="330" as="sourcePoint" />
            <mxPoint x="410" y="280" as="targetPoint" />
          </mxGeometry>
        </mxCell>
        <mxCell id="YkI9wFQXWLJBNFwZknxd-12" value="" style="endArrow=classic;html=1;rounded=0;exitX=0.25;exitY=0.1;exitDx=0;exitDy=0;exitPerimeter=0;entryX=0.962;entryY=0.758;entryDx=0;entryDy=0;entryPerimeter=0;" edge="1" parent="1" source="adwFdZlHH-X9pD3AE2Ko-14" target="adwFdZlHH-X9pD3AE2Ko-18">
          <mxGeometry width="50" height="50" relative="1" as="geometry">
            <mxPoint x="360" y="330" as="sourcePoint" />
            <mxPoint x="410" y="280" as="targetPoint" />
          </mxGeometry>
        </mxCell>
        <mxCell id="YkI9wFQXWLJBNFwZknxd-13" value="" style="endArrow=classic;html=1;rounded=0;exitX=0.667;exitY=0.833;exitDx=0;exitDy=0;exitPerimeter=0;" edge="1" parent="1" source="adwFdZlHH-X9pD3AE2Ko-14" target="adwFdZlHH-X9pD3AE2Ko-19">
          <mxGeometry width="50" height="50" relative="1" as="geometry">
            <mxPoint x="360" y="330" as="sourcePoint" />
            <mxPoint x="410" y="280" as="targetPoint" />
          </mxGeometry>
        </mxCell>
        <mxCell id="YkI9wFQXWLJBNFwZknxd-14" value="" style="endArrow=classic;html=1;rounded=0;exitX=0.733;exitY=0.321;exitDx=0;exitDy=0;exitPerimeter=0;" edge="1" parent="1" source="adwFdZlHH-X9pD3AE2Ko-14" target="adwFdZlHH-X9pD3AE2Ko-16">
          <mxGeometry width="50" height="50" relative="1" as="geometry">
            <mxPoint x="470" y="530" as="sourcePoint" />
            <mxPoint x="410" y="390" as="targetPoint" />
          </mxGeometry>
        </mxCell>
        <mxCell id="YkI9wFQXWLJBNFwZknxd-16" value="" style="endArrow=classic;html=1;rounded=0;" edge="1" parent="1" source="adwFdZlHH-X9pD3AE2Ko-14" target="adwFdZlHH-X9pD3AE2Ko-17">
          <mxGeometry width="50" height="50" relative="1" as="geometry">
            <mxPoint x="360" y="440" as="sourcePoint" />
            <mxPoint x="410" y="390" as="targetPoint" />
          </mxGeometry>
        </mxCell>
      </root>
    </mxGraphModel>
  </diagram>
</mxfile>
